<svg width="103" height="38" viewBox="0 0 103 38" fill="none" xmlns="http://www.w3.org/2000/svg">
<path d="M24.6562 8.25V9.09375H22.1562V26.1562H23.8125C24.25 26.1979 24.5312 26.4792 24.6562 27H16V26.1562H18.5V11.25L11.625 27.25H11.0312L4.3125 13.875V26.1562H5.96875C6.40625 26.1979 6.6875 26.4792 6.8125 27H0.5V26.1562H3V9.09375H0.5V8.25H5.75L12.5312 22.3125L18.5 8.25H24.6562Z" fill="white"/>
<path d="M46.25 9.09375V8.25H52.5938V9.09375H50.0938V26.8438L48.4375 27.1562L36.3125 12.6875V26.1562H38.125C38.5625 26.1979 38.8438 26.4792 38.9688 27H32.5312V26.1562H35.0312V9.09375H32.5312V8.25H37.5L48.8125 21.7812V9.09375H46.25Z" fill="white"/>
<path d="M71.625 27H61.875V26.1562H64.8438V9.09375H63.9375C63.5208 9.09375 63.1458 9.14583 62.8125 9.25C61.7083 9.58333 60.9062 10.5625 60.4062 12.1875L59.5938 14.7812H58.6562L58.8125 8.25H74.75L74.875 14.7812H73.9688L73.1562 12.1875C73.0729 11.9167 72.9792 11.6562 72.875 11.4062C72.2292 9.86458 71.1458 9.09375 69.625 9.09375H68.6875V26.1562H70.8125C71.1875 26.1979 71.4583 26.4792 71.625 27Z" fill="white"/>
<path d="M96.25 9.09375V8.25H102.594V9.09375H100.094V26.8438L98.4375 27.1562L86.3125 12.6875V26.1562H88.125C88.5625 26.1979 88.8438 26.4792 88.9688 27H82.5312V26.1562H85.0312V9.09375H82.5312V8.25H87.5L98.8125 21.7812V9.09375H96.25Z" fill="white"/>
</svg>
